<svg width="512" height="512" viewBox="0 0 512 512" xmlns="http://www.w3.org/2000/svg">
  <defs>
    <linearGradient id="purpleGrad" x1="0%" y1="0%" x2="100%" y2="100%">
      <stop offset="0%" style="stop-color:#6B46C1;stop-opacity:1" />
      <stop offset="100%" style="stop-color:#4C1D95;stop-opacity:1" />
    </linearGradient>
    <linearGradient id="tealGrad" x1="0%" y1="0%" x2="100%" y2="100%">
      <stop offset="0%" style="stop-color:#14B8A6;stop-opacity:1" />
      <stop offset="100%" style="stop-color:#0D9488;stop-opacity:1" />
    </linearGradient>
  </defs>
  
  <!-- White circle background -->
  <circle cx="256" cy="256" r="240" fill="#FFFFFF" stroke="#4C1D95" stroke-width="20"/>
  
  <!-- Brand name arched at top -->
  <path id="topText" d="M 100 120 Q 256 80 412 120" fill="none"/>
  <text fill="#4C1D95" font-family="Arial, sans-serif" font-size="28" font-weight="bold">
    <textPath href="#topText" startOffset="50%" text-anchor="middle">onlygossips247</textPath>
  </text>
  
  <!-- Tagline arched at bottom -->
  <path id="bottomText" d="M 100 392 Q 256 432 412 392" fill="none"/>
  <text fill="#4C1D95" font-family="Arial, sans-serif" font-size="18" font-weight="normal">
    <textPath href="#bottomText" startOffset="50%" text-anchor="middle">Your Daily Scoop</textPath>
  </text>
  
  <!-- Main purple chat bubble -->
  <ellipse cx="200" cy="240" rx="80" ry="70" fill="url(#purpleGrad)"/>
  
  <!-- White star inside purple bubble -->
  <path d="M 200 200 L 210 225 L 235 225 L 215 240 L 225 265 L 200 250 L 175 265 L 185 240 L 165 225 L 190 225 Z" fill="#FFFFFF"/>
  
  <!-- Teal chat bubble -->
  <ellipse cx="280" cy="260" rx="50" ry="45" fill="url(#tealGrad)"/>
  
  <!-- "247" text on purple bubble -->
  <text x="250" y="230" fill="#FFFFFF" font-family="Arial, sans-serif" font-size="20" font-weight="bold">247</text>
  
  <!-- Decorative sparkles - gold stars -->
  <path d="M 150 180 L 155 195 L 170 195 L 158 205 L 163 220 L 150 210 L 137 220 L 142 205 L 130 195 L 145 195 Z" fill="#FBBF24" opacity="0.9"/>
  <path d="M 320 200 L 323 208 L 331 208 L 325 214 L 328 222 L 320 218 L 312 222 L 315 214 L 309 208 L 317 208 Z" fill="#FBBF24" opacity="0.9"/>
  <path d="M 360 280 L 363 288 L 371 288 L 365 294 L 368 302 L 360 298 L 352 302 L 355 294 L 349 288 L 357 288 Z" fill="#FBBF24" opacity="0.9"/>
  
  <!-- Decorative sparkles - teal stars -->
  <path d="M 130 300 L 133 308 L 141 308 L 135 314 L 138 322 L 130 318 L 122 322 L 125 314 L 119 308 L 127 308 Z" fill="#14B8A6" opacity="0.9"/>
  <path d="M 350 320 L 353 328 L 361 328 L 355 334 L 358 342 L 350 338 L 342 342 L 345 334 L 339 328 L 347 328 Z" fill="#14B8A6" opacity="0.9"/>
  
  <!-- Decorative dots -->
  <circle cx="140" cy="160" r="4" fill="#FBBF24" opacity="0.8"/>
  <circle cx="380" cy="180" r="4" fill="#FBBF24" opacity="0.8"/>
  <circle cx="120" cy="340" r="4" fill="#14B8A6" opacity="0.8"/>
  <circle cx="390" cy="320" r="4" fill="#14B8A6" opacity="0.8"/>
  
  <!-- Decorative circular arcs -->
  <path d="M 120 200 Q 150 180 180 200" fill="none" stroke="#FBBF24" stroke-width="2" opacity="0.6" stroke-dasharray="5,5"/>
  <path d="M 300 300 Q 330 320 360 300" fill="none" stroke="#14B8A6" stroke-width="2" opacity="0.6" stroke-dasharray="5,5"/>
</svg>

